<svg version="1.1" id="Layer_1" xmlns="http://www.w3.org/2000/svg" xmlns:xlink="http://www.w3.org/1999/xlink" x="0px" y="0px"
	 width="100%" viewBox="0 0 200 200" enable-background="new 0 0 200 200" xml:space="preserve">
<path fill="#FEFEFD" opacity="1.000000" stroke="none" 
	d="
M116.000000,201.000000 
	C77.357201,201.000000 39.214397,201.000000 1.035799,201.000000 
	C1.035799,134.398911 1.035799,67.797783 1.035799,1.098330 
	C67.559296,1.098330 134.118790,1.098330 200.839142,1.098330 
	C200.839142,67.666351 200.839142,134.333145 200.839142,201.000000 
	C172.798065,201.000000 144.649033,201.000000 116.000000,201.000000 
M133.744095,170.766388 
	C133.744095,170.766388 133.689728,170.653275 133.088654,170.685623 
	C132.721451,171.114944 132.354233,171.544281 131.670013,172.433594 
	C131.608444,172.609344 131.546890,172.785095 130.815094,173.051773 
	C129.484238,173.186737 128.126953,173.203873 126.831024,173.494583 
	C125.823875,173.720535 124.893257,174.287613 123.543716,174.944641 
	C123.543716,174.944641 123.105583,175.065247 122.397133,175.092300 
	C120.606300,176.666000 119.143898,178.399536 116.082283,177.245605 
	C114.882553,176.793442 112.207382,178.210114 111.381119,179.518768 
	C110.812492,180.419373 111.866783,183.539612 112.913933,183.987076 
	C114.509155,184.668777 116.835968,184.229324 118.643532,183.633347 
	C120.049713,183.169708 121.137856,181.741455 122.965401,181.127655 
	C125.010353,180.763306 127.055298,180.398956 129.958069,180.003403 
	C132.993683,179.605118 136.098343,179.464600 139.030167,178.679001 
	C140.168961,178.373856 143.374222,177.386902 140.154129,174.265854 
	C140.116058,173.510864 140.077972,172.755859 140.801453,172.016861 
	C141.563095,171.991486 142.324753,171.966110 143.517151,172.108459 
	C143.517151,172.108459 143.918716,172.337402 144.158401,173.013153 
	C146.426575,174.195328 148.716141,175.467773 150.029785,171.220566 
	C150.323730,170.808640 150.617691,170.396698 151.451859,169.704041 
	C151.407974,168.809875 151.364090,167.915710 151.112411,166.320511 
	C150.977737,165.852081 150.843048,165.383636 151.596024,164.953781 
	C153.724182,164.640182 155.852341,164.326569 158.517975,163.727585 
	C159.272263,163.442368 160.026550,163.157166 161.545441,162.851898 
	C162.520004,159.909515 163.494553,156.967133 164.520691,153.869003 
	C166.224197,152.859528 168.614960,151.442764 171.345200,149.376465 
	C173.887466,146.502319 173.352432,143.477203 171.748108,139.726700 
	C171.390518,138.942612 171.032928,138.158508 170.488800,136.965378 
	C172.039627,136.965378 173.023987,136.965378 174.277100,137.415039 
	C175.692169,136.818146 177.435150,136.551910 178.446991,135.548431 
	C180.045853,133.962799 182.303986,131.833420 182.226318,130.022385 
	C182.073898,126.468056 182.668365,121.739799 176.913437,120.397026 
	C176.693588,120.136742 176.413605,119.996613 176.022018,120.009079 
	C176.022018,120.009079 176.019455,119.948318 176.169403,119.222000 
	C177.979889,116.881294 183.217850,119.140182 183.216797,113.633316 
	C183.475891,113.414780 183.735001,113.196236 184.547943,112.645744 
	C184.660431,112.036873 184.772934,111.428001 184.910721,109.977325 
	C184.865143,108.288582 184.819565,106.599838 184.901642,104.138557 
	C184.917603,103.096283 184.933548,102.054008 185.512970,100.511467 
	C184.411118,95.660049 183.309280,90.808640 181.930923,85.495399 
	C181.865753,85.145691 181.800598,84.795975 181.905136,83.656410 
	C181.327271,82.426300 180.749390,81.196182 179.923706,79.501457 
	C179.852310,79.160500 179.780930,78.819542 179.894836,77.673195 
	C178.994019,76.100578 178.093201,74.527962 176.805374,72.359787 
	C168.059921,54.761551 154.739182,41.719090 137.006699,33.430908 
	C127.844032,29.148264 118.202690,26.038397 106.983009,26.252708 
	C104.653793,26.191568 102.324570,26.130428 99.106697,25.915644 
	C71.179939,27.341446 49.234913,39.693935 33.415234,62.592091 
	C25.483269,74.073196 20.485971,86.822853 19.871605,101.798271 
	C19.769709,102.781120 19.655537,103.762886 19.567812,104.746994 
	C18.684942,114.651314 22.638964,117.953384 34.823036,117.036911 
	C47.824520,117.062492 60.826000,117.088066 73.777977,117.168617 
	C73.777977,117.168617 73.804512,117.237671 73.788719,118.142303 
	C73.980179,124.112030 74.171638,130.081757 74.162819,136.913315 
	C73.831589,141.052780 73.282722,145.230652 77.031189,148.366776 
	C81.316597,151.952164 85.757355,151.272598 92.689400,146.016144 
	C108.054092,136.339828 123.418793,126.663506 139.478058,116.783997 
	C147.461304,111.679054 147.541397,105.725037 139.803772,98.739372 
	C138.529022,98.165497 137.254272,97.591621 135.999100,96.999390 
	C135.999100,96.999390 135.985397,97.020691 135.970474,96.236313 
	C134.567688,95.578484 133.164886,94.920654 131.891418,94.016968 
	C131.891418,94.016968 131.796021,94.277832 131.668884,93.563530 
	C129.977417,92.792450 128.285950,92.021370 126.259850,91.182259 
	C126.259850,91.182259 126.020317,90.938873 125.961266,90.237617 
	C123.561470,88.911591 121.161674,87.585571 118.877808,86.017845 
	C118.877808,86.017845 118.797569,86.273590 118.660217,85.554550 
	C117.624336,85.130493 116.588448,84.706444 115.231483,84.211708 
	C115.231483,84.211708 115.015442,83.963875 114.913956,83.251495 
	C114.114105,82.939987 113.314262,82.628479 111.946777,82.193924 
	C111.304047,81.770393 110.661324,81.346863 109.931923,80.212036 
	C108.331192,79.447868 106.730453,78.683708 105.047508,77.959946 
	C105.047508,77.959946 105.068352,77.870743 104.940590,77.212364 
	C104.202980,76.914825 103.465370,76.617287 102.780800,76.023468 
	C102.780800,76.023468 102.759888,76.323456 102.611374,75.670914 
	C102.007607,75.488831 101.403831,75.306740 100.384438,75.025093 
	C100.107094,74.911758 99.902573,74.720535 99.656242,73.779739 
	C99.254410,73.635269 98.852570,73.490799 97.931808,73.348419 
	C97.638481,73.178200 97.345161,73.007980 97.024864,72.110863 
	C95.253853,71.189507 93.482841,70.268150 91.954277,69.137314 
	C91.954277,69.137314 91.714836,69.336845 91.650436,68.600403 
	C89.866226,67.490410 88.171516,65.657196 86.278915,65.422966 
	C82.494171,64.954559 77.799347,63.049671 75.613960,69.384003 
	C75.254593,69.892754 74.895233,70.401505 73.863853,71.201309 
	C71.475357,79.037338 74.508430,84.702156 81.053055,84.957443 
	C81.053055,84.957443 81.124359,84.811249 81.310440,85.511131 
	C82.350677,85.916695 83.390915,86.322258 84.757416,86.792290 
	C84.757416,86.792290 84.988274,87.031677 85.051521,87.759148 
	C86.857170,88.731552 88.662819,89.703949 90.963272,90.773949 
	C91.372513,91.057152 91.781754,91.340355 92.283890,92.314224 
	C93.188026,92.874573 94.092163,93.434929 95.683586,94.128860 
	C102.426804,98.096825 109.170013,102.064781 116.149033,106.596497 
	C116.410431,107.717155 116.671829,108.837814 117.003502,109.982613 
	C117.003502,109.982613 116.956825,109.924789 116.238762,110.039574 
	C112.407974,112.624023 108.577179,115.208473 104.865883,117.842117 
	C104.865883,117.842117 104.852074,117.713623 104.196877,117.785240 
	C103.371834,118.437027 102.546791,119.088806 101.906662,119.798195 
	C101.906662,119.798195 101.753716,119.679359 101.054214,119.743553 
	C99.143761,121.085716 97.233307,122.427879 95.146751,123.704758 
	C95.146751,123.704758 94.996735,123.817734 94.133934,123.914169 
	C93.426674,122.972198 92.273659,122.105820 92.098610,121.073601 
	C91.636841,118.350708 91.599487,115.555847 91.650955,111.978165 
	C92.737564,102.071152 88.839180,98.486740 77.162315,99.215675 
	C64.200691,99.115273 51.239071,99.014870 38.297039,98.158165 
	C40.457947,85.417351 45.826225,74.205391 54.632725,64.754471 
	C68.316254,50.069633 85.436363,43.508759 106.103775,43.960457 
	C131.427063,46.487633 149.953156,58.838356 160.940140,82.780968 
	C162.305893,89.537392 163.573395,96.315811 165.078827,103.040962 
	C165.832809,106.409225 167.020554,109.680389 168.532135,113.177711 
	C168.662796,113.508148 168.793457,113.838593 168.912048,114.835960 
	C169.272049,116.486053 169.632050,118.136147 169.545975,119.955925 
	C169.545975,119.955925 169.079437,120.056473 168.586472,120.176971 
	C168.386978,120.440826 168.187500,120.704689 167.720291,121.529434 
	C166.792694,122.343193 165.865082,123.156960 164.195023,124.147499 
	C164.343781,128.195786 164.492523,132.244080 164.643036,136.340103 
	C163.737091,137.154724 162.271194,138.472855 160.154755,140.033890 
	C155.461288,142.562012 156.844971,145.376801 159.872253,148.952972 
	C159.052673,149.526443 158.276886,150.181168 157.402313,150.652603 
	C156.333298,151.228851 155.181412,151.651413 153.724930,152.550140 
	C153.236038,152.746567 152.747147,152.942978 151.657440,153.259048 
	C151.497864,153.613495 151.338272,153.967957 151.103516,154.990967 
	C150.886642,155.625412 150.669785,156.259857 149.987411,157.056519 
	C150.156906,157.738480 150.326416,158.420425 150.735367,159.714203 
	C150.810471,160.145813 150.885559,160.577423 150.395767,161.257675 
	C149.280884,161.675507 148.166016,162.093338 146.256470,162.627716 
	C142.732056,162.679962 141.208145,164.765793 140.192810,168.317200 
	C138.451370,168.736664 136.709946,169.156113 135.000031,169.801849 
	C135.000031,169.801849 135.018921,170.029510 134.495697,169.943695 
	C134.251617,170.176590 134.007553,170.409485 133.744095,170.766388 
M183.395096,119.210312 
	C183.778717,119.212898 184.162598,119.219757 184.544830,119.197960 
	C184.556625,119.197289 184.551468,118.899086 184.554199,118.739594 
	C184.171295,118.735313 183.788406,118.731033 183.395096,119.210312 
z"/>
<path fill="#EB6F0D" opacity="1.000000" stroke="none" 
	d="
M184.949493,101.011734 
	C184.933548,102.054008 184.917603,103.096283 184.599304,104.311920 
	C182.532608,102.985413 180.768250,101.485550 178.742645,99.709618 
	C173.804214,97.717377 170.707825,100.911987 167.113068,102.659370 
	C164.979767,95.504616 163.002426,88.733353 161.025085,81.962097 
	C149.953156,58.838356 131.427063,46.487633 105.680618,43.704636 
	C105.257462,43.448814 105.241325,43.124252 105.573494,43.051285 
	C112.477715,38.289577 112.815651,35.376469 107.815826,26.512272 
	C118.202690,26.038397 127.844032,29.148264 137.006699,33.430908 
	C154.739182,41.719090 168.059921,54.761551 177.023865,72.998154 
	C178.064743,75.250542 178.887146,76.864563 179.709534,78.478584 
	C179.780930,78.819542 179.852310,79.160500 180.017700,80.078568 
	C180.652954,81.919212 181.194199,83.182739 181.735443,84.446266 
	C181.800598,84.795975 181.865753,85.145691 182.028488,86.129929 
	C183.067200,91.513550 184.008347,96.262642 184.949493,101.011734 
z"/>
<path fill="#60310D" opacity="1.000000" stroke="none" 
	d="
M105.241325,43.124252 
	C105.241325,43.124252 105.257462,43.448814 105.299423,43.606205 
	C85.436363,43.508759 68.316254,50.069633 54.632725,64.754471 
	C45.826225,74.205391 40.457947,85.417351 38.129845,98.540070 
	C37.962646,98.921982 37.675255,99.050354 37.237293,99.040199 
	C31.230846,99.700233 25.662361,100.370430 20.093874,101.040619 
	C20.485971,86.822853 25.483269,74.073196 33.415234,62.592091 
	C49.234913,39.693935 71.179939,27.341446 99.317619,26.250114 
	C92.645157,29.179564 91.896675,31.734797 93.955727,37.713104 
	C96.105186,43.953907 100.754539,42.887878 105.241325,43.124252 
z"/>
<path fill="#A8C818" opacity="1.000000" stroke="none" 
	d="
M115.015442,83.963875 
	C115.015442,83.963875 115.231483,84.211708 115.554016,84.538406 
	C116.850227,85.334602 117.823898,85.804092 118.797569,86.273590 
	C118.797569,86.273590 118.877808,86.017845 118.938339,86.446793 
	C121.339355,88.230118 123.679832,89.584496 126.020317,90.938873 
	C126.020317,90.938873 126.259850,91.182259 126.590927,91.518509 
	C128.546677,92.662453 130.171341,93.470139 131.796021,94.277832 
	C131.796021,94.277832 131.891418,94.016968 131.947647,94.442528 
	C133.331055,95.585625 134.658234,96.303154 135.985397,97.020691 
	C135.985397,97.020691 135.999100,96.999390 136.122269,97.243385 
	C136.542618,97.930672 136.839798,98.373962 136.756805,98.887634 
	C130.928833,101.656487 125.481026,104.354973 119.794846,106.769882 
	C118.342064,106.335129 117.127647,106.183937 115.913231,106.032745 
	C109.170013,102.064781 102.426804,98.096825 95.197426,93.763176 
	C93.871178,92.806175 93.031090,92.214859 92.190994,91.623550 
	C91.781754,91.340355 91.372513,91.057152 90.503197,90.459869 
	C88.358177,89.107742 86.673225,88.069710 84.988274,87.031677 
	C84.988274,87.031677 84.757416,86.792290 84.432053,86.465500 
	C83.112579,85.696220 82.118469,85.253738 81.124359,84.811249 
	C81.124359,84.811249 81.053055,84.957443 81.013206,84.574127 
	C75.670509,81.294258 73.067711,77.088921 74.535873,70.910263 
	C74.895233,70.401505 75.254593,69.892754 76.125351,69.030510 
	C81.877090,63.999592 86.771713,67.222389 91.714836,69.336845 
	C91.714836,69.336845 91.954277,69.137314 91.958565,69.537018 
	C93.659180,70.903740 95.355507,71.870743 97.051834,72.837753 
	C97.345161,73.007980 97.638481,73.178200 98.342484,73.604980 
	C99.092400,74.058182 99.431641,74.254807 99.770882,74.451431 
	C99.902573,74.720535 100.107094,74.911758 100.747009,75.338455 
	C101.659691,75.875702 102.209785,76.099579 102.759888,76.323456 
	C102.759888,76.323456 102.780800,76.023468 102.871506,76.448143 
	C103.664261,77.205460 104.366302,77.538101 105.068352,77.870743 
	C105.068352,77.870743 105.047508,77.959946 105.239243,78.227318 
	C106.960175,79.304237 108.489380,80.113785 110.018593,80.923340 
	C110.661324,81.346863 111.304047,81.770393 112.385307,82.536736 
	C113.554375,83.240990 114.284904,83.602432 115.015442,83.963875 
z"/>
<path fill="#A8C818" opacity="1.000000" stroke="none" 
	d="
M94.996735,123.817734 
	C94.996735,123.817734 95.146751,123.704758 95.645859,123.784729 
	C98.014557,122.469589 99.884132,121.074471 101.753708,119.679352 
	C101.753716,119.679359 101.906662,119.798195 102.171173,119.832031 
	C103.241142,119.148445 104.046608,118.431030 104.852074,117.713623 
	C104.852074,117.713623 104.865883,117.842117 105.184418,117.856277 
	C109.320908,115.221886 113.138863,112.573334 116.956825,109.924789 
	C116.956825,109.924789 117.003502,109.982613 117.377213,109.984276 
	C118.841774,109.986153 119.932625,109.986359 121.374855,110.031227 
	C127.278893,112.708130 131.688248,118.162064 138.783493,116.987198 
	C123.418793,126.663506 108.054092,136.339828 92.320679,145.549042 
	C91.992416,139.052475 92.032860,133.023010 92.414513,126.954758 
	C93.502724,125.883232 94.249733,124.850487 94.996735,123.817734 
z"/>
<path fill="#5F7E30" opacity="1.000000" stroke="none" 
	d="
M73.827484,117.113647 
	C60.826000,117.088066 47.824520,117.062492 34.388294,116.535408 
	C38.700745,111.141151 38.234352,105.105911 37.675255,99.050354 
	C37.675255,99.050354 37.962646,98.921982 38.120049,98.918228 
	C51.239071,99.014870 64.200691,99.115273 77.555557,99.680061 
	C72.389549,104.784317 74.492638,111.285141 73.827484,117.113647 
z"/>
<path fill="#709E08" opacity="1.000000" stroke="none" 
	d="
M92.073303,126.993530 
	C92.032860,133.023010 91.992416,139.052475 91.960571,145.552795 
	C85.757355,151.272598 81.316597,151.952164 77.031189,148.366776 
	C73.282722,145.230652 73.831589,141.052780 74.593071,136.442886 
	C77.873596,134.064560 80.600258,131.924988 83.611244,130.318253 
	C86.267059,128.901047 89.240257,128.078613 92.073303,126.993530 
z"/>
<path fill="#719F08" opacity="1.000000" stroke="none" 
	d="
M139.130768,116.885597 
	C131.688248,118.162064 127.278893,112.708130 121.245110,109.743690 
	C120.520401,108.625481 120.276810,107.839462 120.033211,107.053452 
	C125.481026,104.354973 130.928833,101.656487 137.087036,98.948959 
	C138.435013,99.135696 139.072617,99.331490 139.710205,99.527275 
	C147.541397,105.725037 147.461304,111.679054 139.130768,116.885597 
z"/>
<path fill="#271D07" opacity="1.000000" stroke="none" 
	d="
M37.237293,99.040199 
	C38.234352,105.105911 38.700745,111.141151 33.935314,116.384476 
	C22.638964,117.953384 18.684942,114.651314 19.567812,104.746994 
	C19.655537,103.762886 19.769709,102.781120 19.982738,101.419449 
	C25.662361,100.370430 31.230846,99.700233 37.237293,99.040199 
z"/>
<path fill="#3E6308" opacity="1.000000" stroke="none" 
	d="
M73.802734,117.141129 
	C74.492638,111.285141 72.389549,104.784317 78.009567,99.817886 
	C88.839180,98.486740 92.737564,102.071152 91.216545,112.500000 
	C88.175980,116.200394 84.895416,117.557198 80.742218,117.139084 
	C78.456131,116.908936 76.118759,117.188118 73.804512,117.237671 
	C73.804512,117.237671 73.777977,117.168617 73.802734,117.141129 
z"/>
<path fill="#A4C51E" opacity="1.000000" stroke="none" 
	d="
M73.796616,117.689987 
	C76.118759,117.188118 78.456131,116.908936 80.742218,117.139084 
	C84.895416,117.557198 88.175980,116.200394 91.087646,112.905731 
	C91.599487,115.555847 91.636841,118.350708 92.098610,121.073601 
	C92.273659,122.105820 93.426674,122.972198 94.565338,123.865952 
	C94.249733,124.850487 93.502724,125.883232 92.414513,126.954758 
	C89.240257,128.078613 86.267059,128.901047 83.611244,130.318253 
	C80.600258,131.924988 77.873596,134.064560 74.693207,136.011963 
	C74.171638,130.081757 73.980179,124.112030 73.796616,117.689987 
z"/>
<path fill="#5C1504" opacity="1.000000" stroke="none" 
	d="
M105.573494,43.051285 
	C100.754539,42.887878 96.105186,43.953907 93.955727,37.713104 
	C91.896675,31.734797 92.645157,29.179564 99.761948,26.326935 
	C102.324570,26.130428 104.653793,26.191568 107.399414,26.382490 
	C112.815651,35.376469 112.477715,38.289577 105.573494,43.051285 
z"/>
<path fill="#D53208" opacity="1.000000" stroke="none" 
	d="
M167.269028,103.042870 
	C170.707825,100.911987 173.804214,97.717377 178.705444,100.005028 
	C177.802078,100.778160 176.674683,100.979820 175.344025,101.217834 
	C175.293579,101.798279 174.963745,102.593567 175.228592,103.016319 
	C177.536179,106.699821 178.506607,110.253960 175.198135,113.981117 
	C174.844849,114.379120 175.700134,115.849937 175.638184,116.902252 
	C173.162445,116.043961 171.043274,115.106499 168.924103,114.169037 
	C168.793457,113.838593 168.662796,113.508148 168.217163,112.680717 
	C167.691116,109.136772 167.480072,106.089821 167.269028,103.042870 
z"/>
<path fill="#D32306" opacity="1.000000" stroke="none" 
	d="
M175.994766,116.823074 
	C175.700134,115.849937 174.844849,114.379120 175.198135,113.981117 
	C178.506607,110.253960 177.536179,106.699821 175.228592,103.016319 
	C174.963745,102.593567 175.293579,101.798279 175.344025,101.217834 
	C176.674683,100.979820 177.802078,100.778160 178.966690,100.281090 
	C180.768250,101.485550 182.532608,102.985413 184.535477,104.698181 
	C184.819565,106.599838 184.865143,108.288582 184.659180,110.591934 
	C184.269775,111.796928 184.131927,112.387314 183.994095,112.977699 
	C183.735001,113.196236 183.475891,113.414780 182.834930,113.920700 
	C181.962204,114.477280 181.471359,114.746475 180.778625,115.089752 
	C180.316223,115.312218 180.133484,115.526817 179.875427,115.955986 
	C179.722351,116.104324 179.297089,116.134354 179.057892,116.140533 
	C178.486298,116.222694 178.241394,116.411888 177.744858,116.825317 
	C176.935425,116.898575 176.465088,116.860825 175.994766,116.823074 
z"/>
<path fill="#EA9741" opacity="1.000000" stroke="none" 
	d="
M160.780838,162.871948 
	C160.026550,163.157166 159.272263,163.442368 157.887375,163.800034 
	C155.158066,162.917999 153.059372,161.963516 150.960663,161.009033 
	C150.885559,160.577423 150.810471,160.145813 150.729584,159.044022 
	C150.633499,157.880661 150.543213,157.387482 150.452927,156.894302 
	C150.669785,156.259857 150.886642,155.625412 151.368378,154.506775 
	C151.841583,153.728195 152.049927,153.433807 152.258255,153.139404 
	C152.747147,152.942978 153.236038,152.746567 154.298096,152.327850 
	C162.199646,152.452866 163.712250,155.208588 160.780838,162.871948 
z"/>
<path fill="#E5723A" opacity="1.000000" stroke="none" 
	d="
M169.079437,120.056473 
	C169.079437,120.056473 169.545975,119.955925 170.196381,119.929199 
	C172.570999,119.917755 174.295227,119.933037 176.019455,119.948318 
	C176.019455,119.948318 176.022018,120.009079 176.071960,120.205322 
	C176.121902,120.401573 176.212967,120.819519 175.916565,121.055389 
	C175.219208,122.007408 174.954468,123.206207 174.395889,123.363838 
	C169.640930,124.705833 170.551315,127.237259 172.529007,130.411377 
	C173.425339,131.849945 173.629028,133.720108 174.119232,135.548676 
	C174.091522,135.702866 173.973938,135.993317 173.590454,135.958389 
	C165.788742,134.469910 164.851379,133.115051 164.937469,123.970718 
	C165.865082,123.156960 166.792694,122.343193 168.104248,121.190063 
	C168.685303,120.585953 168.882370,120.321213 169.079437,120.056473 
z"/>
<path fill="#EFAC3C" opacity="1.000000" stroke="none" 
	d="
M150.911652,169.984756 
	C150.617691,170.396698 150.323730,170.808640 149.503540,171.526962 
	C147.291092,172.001373 145.604904,172.169388 143.918716,172.337402 
	C143.918716,172.337402 143.517151,172.108459 143.184631,171.721191 
	C142.169662,170.219528 141.487198,169.105103 140.804733,167.990692 
	C141.208145,164.765793 142.732056,162.679962 146.912445,162.761200 
	C148.615082,163.568192 149.661728,164.241699 150.708359,164.915207 
	C150.843048,165.383636 150.977737,165.852081 151.095642,167.027679 
	C151.023132,168.484818 150.967377,169.234787 150.911652,169.984756 
z"/>
<path fill="#E4773D" opacity="1.000000" stroke="none" 
	d="
M171.785522,140.401459 
	C173.352432,143.477203 173.887466,146.502319 170.781860,149.712524 
	C167.784821,150.067764 165.351120,150.086945 163.125443,149.829849 
	C167.852432,148.487991 165.936874,144.923141 165.941483,142.289139 
	C165.943069,141.382660 164.546204,140.473740 163.776306,139.393112 
	C163.764420,139.220291 164.030899,138.998886 164.422943,139.007431 
	C166.113251,139.019608 167.411499,139.023239 168.957230,139.263947 
	C170.064987,139.801163 170.925247,140.101303 171.785522,140.401459 
z"/>
<path fill="#FBF3CB" opacity="1.000000" stroke="none" 
	d="
M122.367340,180.741928 
	C121.137856,181.741455 120.049713,183.169708 118.643532,183.633347 
	C116.835968,184.229324 114.509155,184.668777 112.913933,183.987076 
	C111.866783,183.539612 110.812492,180.419373 111.381119,179.518768 
	C112.207382,178.210114 114.882553,176.793442 116.082283,177.245605 
	C119.143898,178.399536 120.606300,176.666000 122.678085,175.439667 
	C122.761810,177.438660 122.564575,179.090302 122.367340,180.741928 
z"/>
<path fill="#FBE9D2" opacity="1.000000" stroke="none" 
	d="
M164.030899,138.998886 
	C164.030899,138.998886 163.764420,139.220291 163.782501,139.424545 
	C163.800583,139.628799 163.818268,139.689819 163.583221,139.624771 
	C163.348160,139.559723 162.889297,139.725235 162.580475,139.740723 
	C161.873810,139.862823 161.475967,139.969437 161.009186,140.005493 
	C160.940247,139.934921 160.805283,139.790985 160.805283,139.790985 
	C162.271194,138.472855 163.737091,137.154724 164.643036,136.340103 
	C164.492523,132.244080 164.343781,128.195786 164.566254,124.059113 
	C164.851379,133.115051 165.788742,134.469910 173.601227,136.201324 
	C173.995468,136.479172 174.008347,136.965378 174.008347,136.965378 
	C173.023987,136.965378 172.039627,136.965378 170.488800,136.965378 
	C171.032928,138.158508 171.390518,138.942612 171.766815,140.064087 
	C170.925247,140.101303 170.064987,139.801163 168.774704,138.997986 
	C166.906769,138.662933 165.468826,138.830902 164.030899,138.998886 
z"/>
<path fill="#FBE9D2" opacity="1.000000" stroke="none" 
	d="
M162.917404,150.106125 
	C165.351120,150.086945 167.784821,150.067764 170.612122,150.037292 
	C168.614960,151.442764 166.224197,152.859528 164.520691,153.869003 
	C163.494553,156.967133 162.520004,159.909515 161.163147,162.861923 
	C163.712250,155.208588 162.199646,152.452866 154.468307,152.123001 
	C155.181412,151.651413 156.333298,151.228851 157.402313,150.652603 
	C158.276886,150.181168 159.052673,149.526443 159.877075,148.541229 
	C159.881882,148.129486 160.001633,147.998795 160.265228,148.165390 
	C161.325027,148.923370 162.121216,149.514755 162.917404,150.106125 
z"/>
<path fill="#FAE4D3" opacity="1.000000" stroke="none" 
	d="
M174.142731,137.190216 
	C174.008347,136.965378 173.995468,136.479172 173.984711,136.236237 
	C173.973938,135.993317 174.091522,135.702866 174.467392,135.470276 
	C181.202133,132.320206 179.984955,127.241241 177.031204,120.965012 
	C177.087769,120.904083 177.200653,120.781990 177.200653,120.781990 
	C182.668365,121.739799 182.073898,126.468056 182.226318,130.022385 
	C182.303986,131.833420 180.045853,133.962799 178.446991,135.548431 
	C177.435150,136.551910 175.692169,136.818146 174.142731,137.190216 
z"/>
<path fill="#FAE4D3" opacity="1.000000" stroke="none" 
	d="
M167.113068,102.659370 
	C167.480072,106.089821 167.691116,109.136772 167.957153,112.589600 
	C167.020554,109.680389 165.832809,106.409225 165.078827,103.040962 
	C163.573395,96.315811 162.305893,89.537392 160.982605,82.371536 
	C163.002426,88.733353 164.979767,95.504616 167.113068,102.659370 
z"/>
<path fill="#FBF3CB" opacity="1.000000" stroke="none" 
	d="
M140.261749,175.014526 
	C143.374222,177.386902 140.168961,178.373856 139.030167,178.679001 
	C136.098343,179.464600 132.993683,179.605118 129.482422,179.620453 
	C129.393188,175.397583 126.822853,174.868973 123.928635,174.703094 
	C124.893257,174.287613 125.823875,173.720535 126.831024,173.494583 
	C128.126953,173.203873 129.484238,173.186737 131.189148,173.388062 
	C131.733627,174.470795 131.904053,175.217255 132.109756,176.222687 
	C132.439484,176.638260 132.733948,176.794846 133.016144,176.976746 
	C133.003891,177.002060 133.041962,176.959717 133.251495,177.264984 
	C136.062729,178.472046 138.338928,178.584305 139.147064,175.164459 
	C139.115051,175.115891 139.220764,175.164490 139.482147,175.139832 
	C139.916290,175.081619 140.089020,175.048080 140.261749,175.014526 
z"/>
<path fill="#F2CE35" opacity="1.000000" stroke="none" 
	d="
M123.736176,174.823868 
	C126.822853,174.868973 129.393188,175.397583 129.053528,179.636047 
	C127.055298,180.398956 125.010353,180.763306 122.666374,180.934784 
	C122.564575,179.090302 122.761810,177.438660 123.032310,175.426147 
	C123.105583,175.065247 123.543716,174.944641 123.736176,174.823868 
z"/>
<path fill="#FAE4D3" opacity="1.000000" stroke="none" 
	d="
M176.094421,119.585159 
	C174.295227,119.933037 172.570999,119.917755 170.419403,119.844360 
	C169.632050,118.136147 169.272049,116.486053 168.918076,114.502502 
	C171.043274,115.106499 173.162445,116.043961 175.638184,116.902252 
	C176.465088,116.860825 176.935425,116.898575 177.992065,116.850433 
	C178.817963,116.554482 179.057526,116.344421 179.297089,116.134354 
	C179.297089,116.134354 179.722351,116.104324 180.129150,115.955490 
	C180.684143,115.542999 180.832336,115.279335 180.980515,115.015671 
	C181.471359,114.746475 181.962204,114.477280 182.739594,114.160339 
	C183.217850,119.140182 177.979889,116.881294 176.094421,119.585159 
z"/>
<path fill="#F7BA11" opacity="1.000000" stroke="none" 
	d="
M132.074478,175.963699 
	C131.904053,175.217255 131.733627,174.470795 131.524261,173.342606 
	C131.546890,172.785095 131.608444,172.609344 132.141479,172.193985 
	C132.971878,171.520676 133.330811,171.086975 133.689728,170.653275 
	C133.689728,170.653275 133.744095,170.766388 134.019928,170.761642 
	C134.536819,170.514435 134.777863,170.271973 135.018921,170.029510 
	C135.018921,170.029510 135.000031,169.801849 135.285507,169.856613 
	C136.010071,170.043839 136.449142,170.176315 137.017548,170.497986 
	C137.378128,170.919662 137.657349,171.024567 137.992401,170.999481 
	C138.000290,170.997025 138.001404,171.013092 138.089859,171.246582 
	C138.383667,171.766846 138.660233,171.939728 139.003693,171.999359 
	C138.999390,172.000000 139.003616,171.991089 138.977081,172.389114 
	C139.040619,173.579590 139.130692,174.372040 139.220764,175.164490 
	C139.220764,175.164490 139.115051,175.115891 138.777786,175.153412 
	C136.641006,175.780548 134.841476,176.370132 133.041962,176.959717 
	C133.041962,176.959717 133.003891,177.002060 132.924469,176.754791 
	C132.657913,176.227478 132.401062,176.046188 132.074478,175.963699 
z"/>
<path fill="#F1F8CA" opacity="1.000000" stroke="none" 
	d="
M74.199860,71.055786 
	C73.067711,77.088921 75.670509,81.294258 81.070236,84.516144 
	C74.508430,84.702156 71.475357,79.037338 74.199860,71.055786 
z"/>
<path fill="#F1F8CA" opacity="1.000000" stroke="none" 
	d="
M91.682632,68.968628 
	C86.771713,67.222389 81.877090,63.999592 76.292839,68.767677 
	C77.799347,63.049671 82.494171,64.954559 86.278915,65.422966 
	C88.171516,65.657196 89.866226,67.490410 91.682632,68.968628 
z"/>
<path fill="#A4C51E" opacity="1.000000" stroke="none" 
	d="
M116.597794,109.982178 
	C113.138863,112.573334 109.320908,115.221886 105.124664,117.831680 
	C108.577179,115.208473 112.407974,112.624023 116.597794,109.982178 
z"/>
<path fill="#FAE4D3" opacity="1.000000" stroke="none" 
	d="
M185.231232,100.761597 
	C184.008347,96.262642 183.067200,91.513550 182.166748,86.360840 
	C183.309280,90.808640 184.411118,95.660049 185.231232,100.761597 
z"/>
<path fill="#FBF3CB" opacity="1.000000" stroke="none" 
	d="
M151.152191,164.934494 
	C149.661728,164.241699 148.615082,163.568192 147.309784,162.702911 
	C148.166016,162.093338 149.280884,161.675507 150.678223,161.133362 
	C153.059372,161.963516 155.158066,162.917999 157.618637,163.942719 
	C155.852341,164.326569 153.724182,164.640182 151.152191,164.934494 
z"/>
<path fill="#FBE9D2" opacity="1.000000" stroke="none" 
	d="
M159.824219,148.196808 
	C156.844971,145.376801 155.461288,142.562012 160.480011,139.912445 
	C160.805283,139.790985 160.940247,139.934921 160.922638,140.392334 
	C160.603897,143.232773 160.302765,145.615784 160.001633,147.998795 
	C160.001633,147.998795 159.881882,148.129486 159.824219,148.196808 
z"/>
<path fill="#F1F8CA" opacity="1.000000" stroke="none" 
	d="
M125.990791,90.588242 
	C123.679832,89.584496 121.339355,88.230118 118.880379,86.567642 
	C121.161674,87.585571 123.561470,88.911591 125.990791,90.588242 
z"/>
<path fill="#FBF3CB" opacity="1.000000" stroke="none" 
	d="
M136.888229,170.308777 
	C136.449142,170.176315 136.010071,170.043839 135.269745,169.743469 
	C136.709946,169.156113 138.451370,168.736664 140.498779,168.153946 
	C141.487198,169.105103 142.169662,170.219528 142.969269,171.637329 
	C142.324753,171.966110 141.563095,171.991486 140.161499,172.008499 
	C139.348892,171.997116 139.176254,171.994095 139.003616,171.991089 
	C139.003616,171.991089 138.999390,172.000000 138.943375,171.742798 
	C138.592041,171.328094 138.296722,171.170593 138.001404,171.013092 
	C138.001404,171.013092 138.000290,170.997025 137.895233,170.776306 
	C137.537766,170.297256 137.237106,170.214996 136.888229,170.308777 
z"/>
<path fill="#A4C51E" opacity="1.000000" stroke="none" 
	d="
M101.403961,119.711456 
	C99.884132,121.074471 98.014557,122.469589 95.733910,123.817368 
	C97.233307,122.427879 99.143761,121.085716 101.403961,119.711456 
z"/>
<path fill="#A4C51E" opacity="1.000000" stroke="none" 
	d="
M119.794846,106.769882 
	C120.276810,107.839462 120.520401,108.625481 120.893738,109.699028 
	C119.932625,109.986359 118.841774,109.986153 117.342072,109.972206 
	C116.671829,108.837814 116.410431,107.717155 116.031128,106.314621 
	C117.127647,106.183937 118.342064,106.335129 119.794846,106.769882 
z"/>
<path fill="#F1F8CA" opacity="1.000000" stroke="none" 
	d="
M97.038345,72.474304 
	C95.355507,71.870743 93.659180,70.903740 91.837341,69.641769 
	C93.482841,70.268150 95.253853,71.189507 97.038345,72.474304 
z"/>
<path fill="#FBF3CB" opacity="1.000000" stroke="none" 
	d="
M144.038559,172.675278 
	C145.604904,172.169388 147.291092,172.001373 149.390991,171.753922 
	C148.716141,175.467773 146.426575,174.195328 144.038559,172.675278 
z"/>
<path fill="#F1F8CA" opacity="1.000000" stroke="none" 
	d="
M85.019897,87.395416 
	C86.673225,88.069710 88.358177,89.107742 90.255798,90.411072 
	C88.662819,89.703949 86.857170,88.731552 85.019897,87.395416 
z"/>
<path fill="#F1F8CA" opacity="1.000000" stroke="none" 
	d="
M135.977936,96.628494 
	C134.658234,96.303154 133.331055,95.585625 131.882996,94.565460 
	C133.164886,94.920654 134.567688,95.578484 135.977936,96.628494 
z"/>
<path fill="#FAE4D3" opacity="1.000000" stroke="none" 
	d="
M179.802185,78.075890 
	C178.887146,76.864563 178.064743,75.250542 177.217377,73.295937 
	C178.093201,74.527962 178.994019,76.100578 179.802185,78.075890 
z"/>
<path fill="#F1F8CA" opacity="1.000000" stroke="none" 
	d="
M109.975258,80.567688 
	C108.489380,80.113785 106.960175,79.304237 105.280350,78.207115 
	C106.730453,78.683708 108.331192,79.447868 109.975258,80.567688 
z"/>
<path fill="#F1F8CA" opacity="1.000000" stroke="none" 
	d="
M131.732452,93.920685 
	C130.171341,93.470139 128.546677,92.662453 126.758240,91.552528 
	C128.285950,92.021370 129.977417,92.792450 131.732452,93.920685 
z"/>
<path fill="#F1F8CA" opacity="1.000000" stroke="none" 
	d="
M139.756989,99.133324 
	C139.072617,99.331490 138.435013,99.135696 137.467194,98.878586 
	C136.839798,98.373962 136.542618,97.930672 136.112488,97.252563 
	C137.254272,97.591621 138.529022,98.165497 139.756989,99.133324 
z"/>
<path fill="#FAE4D3" opacity="1.000000" stroke="none" 
	d="
M181.820282,84.051338 
	C181.194199,83.182739 180.652954,81.919212 180.141617,80.310883 
	C180.749390,81.196182 181.327271,82.426300 181.820282,84.051338 
z"/>
<path fill="#F1F8CA" opacity="1.000000" stroke="none" 
	d="
M118.728897,85.914070 
	C117.823898,85.804092 116.850227,85.334602 115.714561,84.573746 
	C116.588448,84.706444 117.624336,85.130493 118.728897,85.914070 
z"/>
<path fill="#F1F8CA" opacity="1.000000" stroke="none" 
	d="
M81.217400,85.161194 
	C82.118469,85.253738 83.112579,85.696220 84.268921,86.433266 
	C83.390915,86.322258 82.350677,85.916695 81.217400,85.161194 
z"/>
<path fill="#A4C51E" opacity="1.000000" stroke="none" 
	d="
M104.524475,117.749428 
	C104.046608,118.431030 103.241142,119.148445 102.078705,119.803223 
	C102.546791,119.088806 103.371834,118.437027 104.524475,117.749428 
z"/>
<path fill="#F1F8CA" opacity="1.000000" stroke="none" 
	d="
M92.237442,91.968887 
	C93.031090,92.214859 93.871178,92.806175 94.853783,93.696381 
	C94.092163,93.434929 93.188026,92.874573 92.237442,91.968887 
z"/>
<path fill="#F1F8CA" opacity="1.000000" stroke="none" 
	d="
M114.964699,83.607681 
	C114.284904,83.602432 113.554375,83.240990 112.669128,82.598259 
	C113.314262,82.628479 114.114105,82.939987 114.964699,83.607681 
z"/>
<path fill="#FAE4D3" opacity="1.000000" stroke="none" 
	d="
M183.400299,118.968536 
	C183.788406,118.731033 184.171295,118.735313 184.554199,118.739594 
	C184.551468,118.899086 184.556625,119.197289 184.544830,119.197960 
	C184.162598,119.219757 183.778717,119.212898 183.400299,118.968536 
z"/>
<path fill="#F1F8CA" opacity="1.000000" stroke="none" 
	d="
M105.004471,77.541550 
	C104.366302,77.538101 103.664261,77.205460 102.844986,76.596283 
	C103.465370,76.617287 104.202980,76.914825 105.004471,77.541550 
z"/>
<path fill="#FBF3CB" opacity="1.000000" stroke="none" 
	d="
M150.220169,156.975403 
	C150.543213,157.387482 150.633499,157.880661 150.609848,158.738113 
	C150.326416,158.420425 150.156906,157.738480 150.220169,156.975403 
z"/>
<path fill="#E9C455" opacity="1.000000" stroke="none" 
	d="
M138.977081,172.389114 
	C139.176254,171.994095 139.348892,171.997116 139.780716,172.000504 
	C140.077972,172.755859 140.116058,173.510864 140.207947,174.640198 
	C140.089020,175.048080 139.916290,175.081619 139.482147,175.139832 
	C139.130692,174.372040 139.040619,173.579590 138.977081,172.389114 
z"/>
<path fill="#FBF3CB" opacity="1.000000" stroke="none" 
	d="
M151.181747,169.844391 
	C150.967377,169.234787 151.023132,168.484818 151.199539,167.378204 
	C151.364090,167.915710 151.407974,168.809875 151.181747,169.844391 
z"/>
<path fill="#F1F8CA" opacity="1.000000" stroke="none" 
	d="
M102.685631,75.997185 
	C102.209785,76.099579 101.659691,75.875702 100.954826,75.388237 
	C101.403831,75.306740 102.007607,75.488831 102.685631,75.997185 
z"/>
<path fill="#E9C455" opacity="1.000000" stroke="none" 
	d="
M133.389191,170.669449 
	C133.330811,171.086975 132.971878,171.520676 132.299988,171.963989 
	C132.354233,171.544281 132.721451,171.114944 133.389191,170.669449 
z"/>
<path fill="#FAE4D3" opacity="1.000000" stroke="none" 
	d="
M184.271027,112.811722 
	C184.131927,112.387314 184.269775,111.796928 184.646515,111.012833 
	C184.772934,111.428001 184.660431,112.036873 184.271027,112.811722 
z"/>
<path fill="#F1F8CA" opacity="1.000000" stroke="none" 
	d="
M99.713562,74.115585 
	C99.431641,74.254807 99.092400,74.058182 98.601944,73.603943 
	C98.852570,73.490799 99.254410,73.635269 99.713562,74.115585 
z"/>
<path fill="#E9C455" opacity="1.000000" stroke="none" 
	d="
M134.757309,169.986603 
	C134.777863,170.271973 134.536819,170.514435 134.029633,170.699646 
	C134.007553,170.409485 134.251617,170.176590 134.757309,169.986603 
z"/>
<path fill="#FAE4D3" opacity="1.000000" stroke="none" 
	d="
M176.212967,120.819519 
	C176.212967,120.819519 176.121902,120.401573 176.097687,120.189117 
	C176.413605,119.996613 176.693588,120.136742 177.057037,120.589508 
	C177.200653,120.781990 177.087769,120.904083 176.845520,120.896057 
	C176.603256,120.888039 176.212967,120.819519 176.212967,120.819519 
z"/>
<path fill="#FBF3CB" opacity="1.000000" stroke="none" 
	d="
M151.957855,153.199219 
	C152.049927,153.433807 151.841583,153.728195 151.405975,154.172501 
	C151.338272,153.967957 151.497864,153.613495 151.957855,153.199219 
z"/>
<path fill="#FAE4D3" opacity="1.000000" stroke="none" 
	d="
M168.832947,120.116722 
	C168.882370,120.321213 168.685303,120.585953 168.238129,120.909615 
	C168.187500,120.704689 168.386978,120.440826 168.832947,120.116722 
z"/>
<path fill="#D53208" opacity="1.000000" stroke="none" 
	d="
M179.057892,116.140541 
	C179.057526,116.344421 178.817963,116.554482 178.331177,116.739426 
	C178.241394,116.411888 178.486298,116.222694 179.057892,116.140541 
z"/>
<path fill="#D53208" opacity="1.000000" stroke="none" 
	d="
M180.778625,115.089752 
	C180.832336,115.279335 180.684143,115.542999 180.282227,115.807159 
	C180.133484,115.526817 180.316223,115.312218 180.778625,115.089752 
z"/>
<path fill="#E85F32" opacity="1.000000" stroke="none" 
	d="
M175.916565,121.055389 
	C176.212967,120.819519 176.603256,120.888039 176.788940,120.956985 
	C179.984955,127.241241 181.202133,132.320206 174.495102,135.316086 
	C173.629028,133.720108 173.425339,131.849945 172.529007,130.411377 
	C170.551315,127.237259 169.640930,124.705833 174.395889,123.363838 
	C174.954468,123.206207 175.219208,122.007408 175.916565,121.055389 
z"/>
<path fill="#E58844" opacity="1.000000" stroke="none" 
	d="
M160.265228,148.165390 
	C160.302765,145.615784 160.603897,143.232773 160.991577,140.462906 
	C161.475967,139.969437 161.873810,139.862823 162.677399,139.950470 
	C163.328201,139.993088 163.573242,139.841461 163.818268,139.689819 
	C163.818268,139.689819 163.800583,139.628799 163.794403,139.597366 
	C164.546204,140.473740 165.943069,141.382660 165.941483,142.289139 
	C165.936874,144.923141 167.852432,148.487991 163.125443,149.829849 
	C162.121216,149.514755 161.325027,148.923370 160.265228,148.165390 
z"/>
<path fill="#E58844" opacity="1.000000" stroke="none" 
	d="
M164.422943,139.007431 
	C165.468826,138.830902 166.906769,138.662933 168.527222,138.760910 
	C167.411499,139.023239 166.113251,139.019608 164.422943,139.007431 
z"/>
<path fill="#E4773D" opacity="1.000000" stroke="none" 
	d="
M163.583221,139.624771 
	C163.573242,139.841461 163.328201,139.993088 162.986237,139.934967 
	C162.889297,139.725235 163.348160,139.559723 163.583221,139.624771 
z"/>
<path fill="#E9C455" opacity="1.000000" stroke="none" 
	d="
M133.251495,177.264984 
	C134.841476,176.370132 136.641006,175.780548 138.809799,175.201996 
	C138.338928,178.584305 136.062729,178.472046 133.251495,177.264984 
z"/>
<path fill="#E9C455" opacity="1.000000" stroke="none" 
	d="
M132.109756,176.222687 
	C132.401062,176.046188 132.657913,176.227478 132.936707,176.729492 
	C132.733948,176.794846 132.439484,176.638260 132.109756,176.222687 
z"/>
<path fill="#E9C455" opacity="1.000000" stroke="none" 
	d="
M138.089859,171.246582 
	C138.296722,171.170593 138.592041,171.328094 138.947693,171.742157 
	C138.660233,171.939728 138.383667,171.766846 138.089859,171.246582 
z"/>
<path fill="#E9C455" opacity="1.000000" stroke="none" 
	d="
M137.017548,170.497986 
	C137.237106,170.214996 137.537766,170.297256 137.887360,170.778748 
	C137.657349,171.024567 137.378128,170.919662 137.017548,170.497986 
z"/>
</svg>